<?xml version="1.0" encoding="UTF-8"?>
<!DOCTYPE svg PUBLIC "-//W3C//DTD SVG 1.1//EN" "http://www.w3.org/Graphics/SVG/1.1/DTD/svg11.dtd">
<svg xmlns="http://www.w3.org/2000/svg" version="1.1" width="427px" height="428px" style="shape-rendering:geometricPrecision; text-rendering:geometricPrecision; image-rendering:optimizeQuality; fill-rule:evenodd; clip-rule:evenodd" xmlns:xlink="http://www.w3.org/1999/xlink">
<g><path style="opacity:1" fill="#000000" d="M -0.5,-0.5 C 141.833,-0.5 284.167,-0.5 426.5,-0.5C 426.5,142.167 426.5,284.833 426.5,427.5C 284.167,427.5 141.833,427.5 -0.5,427.5C -0.5,284.833 -0.5,142.167 -0.5,-0.5 Z"/></g>
<g><path style="opacity:1" fill="#fd4600" d="M 200.5,281.5 C 201.493,273.016 201.826,264.349 201.5,255.5C 181.167,255.5 160.833,255.5 140.5,255.5C 139.514,251.03 139.181,246.363 139.5,241.5C 160.167,241.5 180.833,241.5 201.5,241.5C 201.666,237.486 201.499,233.486 201,229.5C 197.706,223.747 194.54,217.913 191.5,212C 174.17,211.5 156.837,211.333 139.5,211.5C 139.5,206.833 139.5,202.167 139.5,197.5C 154.17,197.667 168.837,197.5 183.5,197C 172.127,175.753 160.627,154.587 149,133.5C 145.384,127.371 140.217,123.371 133.5,121.5C 133.5,118.833 133.5,116.167 133.5,113.5C 153.833,113.5 174.167,113.5 194.5,113.5C 194.5,116.167 194.5,118.833 194.5,121.5C 186.404,121.199 182.07,125.032 181.5,133C 181.637,135.898 182.137,138.731 183,141.5C 194.9,165.633 207.067,189.633 219.5,213.5C 233.379,190.409 246.213,166.742 258,142.5C 259.857,136.808 259.857,131.141 258,125.5C 255.087,122.627 251.587,121.294 247.5,121.5C 247.5,118.833 247.5,116.167 247.5,113.5C 265.833,113.5 284.167,113.5 302.5,113.5C 302.663,115.857 302.497,118.19 302,120.5C 294.856,123.638 288.856,128.305 284,134.5C 271.123,155.085 258.623,175.918 246.5,197C 260.496,197.5 274.496,197.667 288.5,197.5C 288.5,202.167 288.5,206.833 288.5,211.5C 271.487,211.167 254.487,211.501 237.5,212.5C 234.585,217.998 231.419,223.332 228,228.5C 227.501,232.821 227.334,237.154 227.5,241.5C 247.833,241.5 268.167,241.5 288.5,241.5C 288.5,246.167 288.5,250.833 288.5,255.5C 268.167,255.5 247.833,255.5 227.5,255.5C 227.334,265.172 227.5,274.839 228,284.5C 228.074,296.908 234.241,304.074 246.5,306C 247.435,308.381 247.768,310.881 247.5,313.5C 225.5,313.5 203.5,313.5 181.5,313.5C 181.5,310.833 181.5,308.167 181.5,305.5C 195.863,304.116 202.196,296.116 200.5,281.5 Z"/></g>
<g><path style="opacity:1" fill="#320700" d="M 140.5,255.5 C 160.833,255.5 181.167,255.5 201.5,255.5C 201.826,264.349 201.493,273.016 200.5,281.5C 200.5,273.167 200.5,264.833 200.5,256.5C 180.326,256.83 160.326,256.497 140.5,255.5 Z"/></g>
</svg>
